<?xml version="1.0" standalone="no"?>
<!DOCTYPE svg PUBLIC "-//W3C//DTD SVG 20010904//EN"
 "http://www.w3.org/TR/2001/REC-SVG-20010904/DTD/svg10.dtd">
<svg version="1.0" xmlns="http://www.w3.org/2000/svg"
 width="400.000000pt" height="400.000000pt" viewBox="0 0 400.000000 400.000000"
 preserveAspectRatio="xMidYMid meet">
<metadata>
Created by potrace 1.14, written by Peter Selinger 2001-2017
</metadata>
<g transform="translate(0.000000,400.000000) scale(0.100000,-0.100000)"
fill="#000000" stroke="none">
<path d="M1438 3993 c7 -3 16 -2 19 1 4 3 -2 6 -13 5 -11 0 -14 -3 -6 -6z"/>
<path d="M1510 3979 c-36 -10 -96 -29 -135 -42 -38 -12 -74 -22 -80 -22 -5 0
-16 -6 -24 -13 -7 -7 -20 -11 -29 -7 -8 3 -23 -2 -33 -11 -9 -8 -30 -17 -45
-19 -15 -1 -33 -10 -40 -20 -7 -10 -18 -14 -25 -9 -8 4 -10 3 -5 -4 7 -12 -5
-16 -33 -13 -7 2 -10 -2 -7 -7 3 -5 -13 -19 -34 -31 -22 -12 -40 -20 -40 -16
0 3 -12 -5 -27 -19 -15 -14 -30 -23 -35 -20 -5 3 -19 -5 -33 -18 -13 -13 -30
-23 -37 -23 -7 -1 -12 -6 -11 -12 2 -11 -28 -26 -52 -28 -5 0 -10 -4 -10 -10
0 -21 -18 -36 -33 -30 -9 3 -13 3 -9 -1 4 -4 2 -13 -4 -21 -9 -10 -15 -11 -26
-2 -11 10 -12 8 -7 -5 4 -9 3 -16 -2 -14 -5 2 -11 -1 -14 -7 -14 -29 -161
-165 -172 -159 -7 4 -8 3 -4 -5 10 -15 -13 -43 -27 -34 -6 4 -7 1 -2 -7 5 -8
2 -17 -7 -24 -8 -6 -36 -40 -62 -76 -27 -36 -51 -64 -54 -62 -3 2 -16 -19 -29
-47 -15 -30 -29 -48 -35 -45 -7 4 -8 2 -4 -4 8 -13 -28 -75 -38 -65 -4 4 -4 1
-1 -8 3 -8 -2 -24 -12 -35 -10 -11 -19 -26 -21 -34 -2 -8 -7 -17 -10 -20 -4
-3 -8 -14 -10 -25 -2 -11 -9 -24 -15 -30 -7 -5 -12 -14 -12 -20 -1 -28 -28
-84 -38 -78 -6 4 -8 0 -4 -9 3 -9 -1 -25 -8 -36 -8 -10 -12 -22 -9 -25 3 -3
-2 -19 -11 -36 -8 -17 -13 -31 -9 -31 4 0 1 -7 -6 -15 -7 -8 -10 -15 -7 -15 4
0 -1 -19 -10 -42 -8 -24 -17 -54 -18 -68 -2 -14 -7 -41 -11 -60 -9 -42 -7 -32
-23 -105 -17 -83 -12 -629 7 -663 7 -12 14 -44 15 -71 1 -27 5 -47 9 -45 8 5
24 -63 20 -83 -2 -7 4 -23 13 -36 9 -14 13 -32 9 -42 -6 -14 -4 -16 6 -10 10
6 12 4 7 -9 -4 -10 -1 -24 8 -32 8 -9 15 -23 16 -32 1 -34 8 -52 23 -68 9 -8
16 -21 16 -28 0 -7 14 -39 32 -72 17 -32 42 -81 56 -108 13 -27 37 -67 53 -89
16 -22 26 -45 22 -51 -3 -6 -3 -8 2 -4 4 4 31 -25 60 -65 56 -76 74 -98 130
-160 21 -24 32 -45 28 -55 -3 -13 -2 -14 4 -4 8 10 25 -1 74 -45 35 -32 77
-71 93 -88 16 -16 31 -30 35 -30 15 0 70 -49 64 -58 -3 -6 -1 -7 6 -3 12 8 64
-28 54 -38 -3 -3 -1 -7 5 -7 23 -3 27 -4 59 -24 24 -14 29 -22 20 -28 -8 -6
-6 -7 6 -3 11 4 31 -3 48 -15 16 -11 29 -17 29 -14 0 3 13 -3 29 -14 16 -12
34 -21 40 -21 6 0 11 -5 11 -12 0 -6 3 -9 6 -6 4 5 115 -36 219 -82 11 -5 44
-14 73 -20 28 -7 52 -17 52 -22 0 -6 6 -8 14 -5 8 3 17 3 20 0 4 -4 25 -8 48
-11 24 -2 45 -7 48 -11 3 -4 14 -7 25 -8 32 0 160 -15 165 -18 3 -2 89 -5 190
-6 169 -2 263 3 345 18 17 3 40 6 53 6 12 -1 22 3 22 7 0 4 20 10 45 13 24 4
74 16 110 28 36 11 71 22 78 23 6 1 18 5 25 9 6 5 16 5 22 2 6 -3 10 -2 10 2
0 6 69 37 110 48 3 1 25 11 50 23 25 12 50 22 57 22 6 0 13 5 15 11 2 5 11 11
21 13 9 1 27 11 40 22 13 11 29 18 36 16 8 -3 11 0 8 5 -4 6 6 16 21 22 15 7
28 11 29 9 1 -1 9 6 17 17 9 11 16 16 16 10 0 -7 3 -7 8 0 9 13 119 95 127 95
3 0 23 17 44 38 51 51 110 97 120 95 5 -1 8 5 7 15 0 10 6 16 16 16 10 -1 15
2 12 7 -4 8 19 37 86 109 8 8 33 39 54 67 22 29 44 49 49 46 6 -4 8 0 4 10 -3
9 -3 17 1 19 13 6 102 145 113 176 6 18 14 32 18 32 3 0 12 15 20 33 8 17 29
64 47 102 17 39 38 89 45 113 7 23 16 42 20 42 5 0 5 7 2 17 -5 12 -3 14 7 8
10 -6 12 -4 6 10 -4 10 0 28 9 42 9 13 14 27 11 31 -2 4 2 32 10 62 9 30 17
66 20 80 2 14 10 50 17 80 16 76 16 584 -1 665 -7 33 -15 76 -18 95 -3 19 -12
58 -21 85 -9 28 -18 59 -19 70 -1 11 -3 21 -4 23 -2 1 -3 5 -5 10 -1 4 -7 20
-13 35 -7 15 -11 31 -10 35 1 4 -3 17 -10 28 -6 12 -8 24 -5 28 3 3 1 6 -5 6
-6 0 -14 10 -18 23 -3 12 -15 40 -25 62 -10 22 -19 47 -21 55 -2 8 -9 21 -16
28 -7 8 -10 18 -7 23 4 5 2 9 -3 9 -12 0 -53 76 -45 84 3 3 0 6 -7 6 -7 0 -10
3 -7 6 3 4 2 15 -4 26 -6 11 -13 17 -16 14 -8 -7 -53 62 -50 77 1 7 -4 11 -12
9 -8 -2 -11 3 -8 13 4 8 1 15 -6 15 -7 0 -22 15 -34 33 -13 18 -31 42 -41 53
-42 46 -60 76 -55 90 3 8 2 14 -3 13 -5 -1 -12 0 -16 1 -5 1 -11 3 -15 4 -14
2 -121 110 -132 134 -7 12 -16 20 -22 17 -5 -4 -9 -1 -9 6 0 7 -3 10 -6 6 -9
-9 -74 42 -71 56 1 6 -4 12 -10 13 -7 1 -18 2 -24 3 -5 0 -8 5 -5 10 3 5 0 8
-8 7 -7 0 -34 18 -60 42 -25 24 -46 39 -46 34 0 -6 -25 3 -55 20 -30 16 -55
34 -55 39 0 6 -4 7 -10 4 -5 -3 -10 -1 -10 4 0 6 -3 10 -7 10 -20 -3 -34 3
-52 22 -11 12 -32 23 -46 25 -15 1 -35 10 -44 18 -10 9 -25 14 -33 11 -9 -4
-22 1 -31 9 -8 8 -17 13 -20 10 -3 -3 -20 1 -39 9 -18 9 -84 29 -146 46 l-113
31 -417 -1 c-384 0 -422 -2 -482 -20z"/>
<path d="M3021 3831 c-8 -5 -9 -11 -3 -15 5 -3 12 1 16 9 6 17 6 18 -13 6z"/>
<path d="M0 2591 c0 -11 4 -22 9 -25 4 -3 6 6 3 19 -5 30 -12 33 -12 6z"/>
<path d="M3992 2590 c0 -14 2 -19 5 -12 2 6 2 18 0 25 -3 6 -5 1 -5 -13z"/>
<path d="M3991 2424 c0 -11 3 -14 6 -6 3 7 2 16 -1 19 -3 4 -6 -2 -5 -13z"/>
<path d="M1708 3 c7 -3 16 -2 19 1 4 3 -2 6 -13 5 -11 0 -14 -3 -6 -6z"/>
</g>
</svg>
